<?xml version="1.0" encoding="UTF-8"?>
<Ableton MajorVersion="5" MinorVersion="10.0_377" SchemaChangeCount="3" Creator="Ableton Live 10.1.6" Revision="04cf0aced295425d457145961b4fde60a4334f97">
	<Groove>
		<Name Value="Hip Hop 3" />
		<Clip>
			<Value>
				<MidiClip Id="0" Time="0">
					<LomId Value="0" />
					<LomIdView Value="0" />
					<CurrentStart Value="0" />
					<CurrentEnd Value="16" />
					<Loop>
						<LoopStart Value="0" />
						<LoopEnd Value="16" />
						<StartRelative Value="0" />
						<LoopOn Value="true" />
						<OutMarker Value="4" />
						<HiddenLoopStart Value="0" />
						<HiddenLoopEnd Value="4" />
					</Loop>
					<Name Value="Hip Hop 3" />
					<Annotation Value="" />
					<ColorIndex Value="20" />
					<LaunchMode Value="0" />
					<LaunchQuantisation Value="0" />
					<TimeSignature>
						<TimeSignatures>
							<RemoteableTimeSignature Id="0">
								<Numerator Value="4" />
								<Denominator Value="4" />
								<Time Value="0" />
							</RemoteableTimeSignature>
						</TimeSignatures>
					</TimeSignature>
					<Envelopes>
						<Envelopes />
					</Envelopes>
					<ScrollerTimePreserver>
						<LeftTime Value="0" />
						<RightTime Value="0" />
					</ScrollerTimePreserver>
					<TimeSelection>
						<AnchorTime Value="16" />
						<OtherTime Value="0" />
					</TimeSelection>
					<Legato Value="false" />
					<Ram Value="false" />
					<GrooveSettings>
						<GrooveId Value="-1" />
					</GrooveSettings>
					<Disabled Value="false" />
					<VelocityAmount Value="0" />
					<FollowTime Value="4" />
					<FollowActionA Value="0" />
					<FollowActionB Value="0" />
					<FollowChanceA Value="1" />
					<FollowChanceB Value="0" />
					<Grid>
						<FixedNumerator Value="1" />
						<FixedDenominator Value="16" />
						<GridIntervalPixel Value="20" />
						<Ntoles Value="2" />
						<SnapToGrid Value="true" />
						<Fixed Value="true" />
					</Grid>
					<FreezeStart Value="0" />
					<FreezeEnd Value="0" />
					<IsWarped Value="true" />
					<Notes>
						<KeyTracks>
							<KeyTrack Id="0">
								<Notes>
									<MidiNoteEvent Time="0" Duration="0.0625" Velocity="85.3079987" OffVelocity="64" IsEnabled="true" NoteId="1" />
									<MidiNoteEvent Time="0.286885250166500183" Duration="0.0625" Velocity="40.5566559" OffVelocity="64" IsEnabled="true" NoteId="2" />
									<MidiNoteEvent Time="0.504468708374958386" Duration="0.0625" Velocity="92.959198" OffVelocity="64" IsEnabled="true" NoteId="3" />
									<MidiNoteEvent Time="0.786885250166500128" Duration="0.0625" Velocity="40.5566559" OffVelocity="64" IsEnabled="true" NoteId="4" />
									<MidiNoteEvent Time="1.0146564373126874" Duration="0.0625" Velocity="127" OffVelocity="64" IsEnabled="true" NoteId="5" />
									<MidiNoteEvent Time="1.2868852501665002" Duration="0.0625" Velocity="40.5566559" OffVelocity="64" IsEnabled="true" NoteId="6" />
									<MidiNoteEvent Time="1.5081020541958041" Duration="0.0625" Velocity="31.1201954" OffVelocity="64" IsEnabled="true" NoteId="7" />
									<MidiNoteEvent Time="1.7868852501665002" Duration="0.0625" Velocity="81.0116119" OffVelocity="64" IsEnabled="true" NoteId="8" />
									<MidiNoteEvent Time="2.0163794538794537" Duration="0.0625" Velocity="93.4993362" OffVelocity="64" IsEnabled="true" NoteId="9" />
									<MidiNoteEvent Time="2.2868852501665002" Duration="0.0625" Velocity="40.5566559" OffVelocity="64" IsEnabled="true" NoteId="10" />
									<MidiNoteEvent Time="2.5212181048118549" Duration="0.0625" Velocity="124.153732" OffVelocity="64" IsEnabled="true" NoteId="11" />
									<MidiNoteEvent Time="2.7868852501665002" Duration="0.0625" Velocity="40.5566559" OffVelocity="64" IsEnabled="true" NoteId="12" />
									<MidiNoteEvent Time="3.0049726315351317" Duration="0.0625" Velocity="125.699829" OffVelocity="64" IsEnabled="true" NoteId="13" />
									<MidiNoteEvent Time="3.3262713848651351" Duration="0.0625" Velocity="62.5625076" OffVelocity="64" IsEnabled="true" NoteId="14" />
									<MidiNoteEvent Time="3.4853578712953714" Duration="0.0625" Velocity="64.1531906" OffVelocity="64" IsEnabled="true" NoteId="15" />
									<MidiNoteEvent Time="3.8133605977355978" Duration="0.0625" Velocity="44.1084251" OffVelocity="64" IsEnabled="true" NoteId="16" />
									<MidiNoteEvent Time="3.9934963474025973" Duration="0.0625" Velocity="88.2168503" OffVelocity="64" IsEnabled="true" NoteId="17" />
									<MidiNoteEvent Time="4.2868852501664998" Duration="0.0625" Velocity="40.5566559" OffVelocity="64" IsEnabled="true" NoteId="18" />
									<MidiNoteEvent Time="4.4670386904761905" Duration="0.0625" Velocity="123.608635" OffVelocity="64" IsEnabled="true" NoteId="19" />
									<MidiNoteEvent Time="4.7904564185814182" Duration="0.0625" Velocity="47.2600861" OffVelocity="64" IsEnabled="true" NoteId="20" />
									<MidiNoteEvent Time="5.0079321719946721" Duration="0.0625" Velocity="127" OffVelocity="64" IsEnabled="true" NoteId="21" />
									<MidiNoteEvent Time="5.2868852501664998" Duration="0.0625" Velocity="40.5566559" OffVelocity="64" IsEnabled="true" NoteId="22" />
									<MidiNoteEvent Time="5.4912004662004659" Duration="0.0625" Velocity="53.6823425" OffVelocity="64" IsEnabled="true" NoteId="23" />
									<MidiNoteEvent Time="5.8039197781385283" Duration="0.0625" Velocity="63.4792557" OffVelocity="64" IsEnabled="true" NoteId="24" />
									<MidiNoteEvent Time="5.9893351440226441" Duration="0.0625" Velocity="75.3871994" OffVelocity="64" IsEnabled="true" NoteId="25" />
									<MidiNoteEvent Time="6.2868852501664998" Duration="0.0625" Velocity="40.5566559" OffVelocity="64" IsEnabled="true" NoteId="26" />
									<MidiNoteEvent Time="6.4937224234099231" Duration="0.0625" Velocity="115.030769" OffVelocity="64" IsEnabled="true" NoteId="27" />
									<MidiNoteEvent Time="6.7974452630702631" Duration="0.0625" Velocity="32.4532089" OffVelocity="64" IsEnabled="true" NoteId="28" />
									<MidiNoteEvent Time="7.0030071491008989" Duration="0.0625" Velocity="127" OffVelocity="64" IsEnabled="true" NoteId="29" />
									<MidiNoteEvent Time="7.2868852501664998" Duration="0.0625" Velocity="40.5566559" OffVelocity="64" IsEnabled="true" NoteId="30" />
									<MidiNoteEvent Time="7.4889498522311024" Duration="0.0625" Velocity="40.1242447" OffVelocity="64" IsEnabled="true" NoteId="31" />
									<MidiNoteEvent Time="7.7774936001498505" Duration="0.0625" Velocity="57.0570107" OffVelocity="64" IsEnabled="true" NoteId="32" />
									<MidiNoteEvent Time="7.9680150578588078" Duration="0.0625" Velocity="73.4545746" OffVelocity="64" IsEnabled="true" NoteId="33" />
									<MidiNoteEvent Time="8.2868852501665007" Duration="0.0625" Velocity="40.5566559" OffVelocity="64" IsEnabled="true" NoteId="34" />
									<MidiNoteEvent Time="8.4664973047785548" Duration="0.0625" Velocity="94.8422775" OffVelocity="64" IsEnabled="true" NoteId="35" />
									<MidiNoteEvent Time="8.7868852501665007" Duration="0.0625" Velocity="40.5566559" OffVelocity="64" IsEnabled="true" NoteId="36" />
									<MidiNoteEvent Time="8.993774714868465" Duration="0.0625" Velocity="127" OffVelocity="64" IsEnabled="true" NoteId="37" />
									<MidiNoteEvent Time="9.2868852501665007" Duration="0.0625" Velocity="40.5566559" OffVelocity="64" IsEnabled="true" NoteId="38" />
									<MidiNoteEvent Time="9.4954524642024634" Duration="0.0625" Velocity="36.4473038" OffVelocity="64" IsEnabled="true" NoteId="39" />
									<MidiNoteEvent Time="9.7747218926906427" Duration="0.0625" Velocity="80.6845551" OffVelocity="64" IsEnabled="true" NoteId="40" />
									<MidiNoteEvent Time="10.00362554112554" Duration="0.0625" Velocity="84.7876816" OffVelocity="64" IsEnabled="true" NoteId="41" />
									<MidiNoteEvent Time="10.171291468947718" Duration="0.0625" Velocity="87.5825424" OffVelocity="64" IsEnabled="true" NoteId="42" />
									<MidiNoteEvent Time="10.508846361971361" Duration="0.0625" Velocity="118.598679" OffVelocity="64" IsEnabled="true" NoteId="43" />
									<MidiNoteEvent Time="10.786885250166501" Duration="0.0625" Velocity="40.5566559" OffVelocity="64" IsEnabled="true" NoteId="44" />
									<MidiNoteEvent Time="11.00270874958375" Duration="0.0625" Velocity="127" OffVelocity="64" IsEnabled="true" NoteId="45" />
									<MidiNoteEvent Time="11.286885250166501" Duration="0.0625" Velocity="40.5566559" OffVelocity="64" IsEnabled="true" NoteId="46" />
									<MidiNoteEvent Time="11.473333437395937" Duration="0.0625" Velocity="48.8706017" OffVelocity="64" IsEnabled="true" NoteId="47" />
									<MidiNoteEvent Time="11.786295995670995" Duration="0.0625" Velocity="41.3432846" OffVelocity="64" IsEnabled="true" NoteId="48" />
									<MidiNoteEvent Time="11.980985680985681" Duration="0.0625" Velocity="85.2336655" OffVelocity="64" IsEnabled="true" NoteId="49" />
									<MidiNoteEvent Time="12.18012144105894" Duration="0.0625" Velocity="36.0558167" OffVelocity="64" IsEnabled="true" NoteId="50" />
									<MidiNoteEvent Time="12.455778596403597" Duration="0.0625" Velocity="114.257721" OffVelocity="64" IsEnabled="true" NoteId="51" />
									<MidiNoteEvent Time="12.751963921495172" Duration="0.0625" Velocity="56.3384705" OffVelocity="64" IsEnabled="true" NoteId="52" />
									<MidiNoteEvent Time="12.878295142357642" Duration="0.0625" Velocity="71.051178" OffVelocity="64" IsEnabled="true" NoteId="53" />
									<MidiNoteEvent Time="12.997471018564768" Duration="0.0625" Velocity="124.475822" OffVelocity="64" IsEnabled="true" NoteId="54" />
									<MidiNoteEvent Time="13.286885250166501" Duration="0.0625" Velocity="40.5566559" OffVelocity="64" IsEnabled="true" NoteId="55" />
									<MidiNoteEvent Time="13.496370036213786" Duration="0.0625" Velocity="51.6902542" OffVelocity="64" IsEnabled="true" NoteId="56" />
									<MidiNoteEvent Time="13.776299481768232" Duration="0.0625" Velocity="69.0838699" OffVelocity="64" IsEnabled="true" NoteId="57" />
									<MidiNoteEvent Time="13.966855540293039" Duration="0.0625" Velocity="84.5844879" OffVelocity="64" IsEnabled="true" NoteId="58" />
									<MidiNoteEvent Time="14.330531187562437" Duration="0.0625" Velocity="50.015316" OffVelocity="64" IsEnabled="true" NoteId="59" />
									<MidiNoteEvent Time="14.468950320512821" Duration="0.0625" Velocity="111.472733" OffVelocity="64" IsEnabled="true" NoteId="60" />
									<MidiNoteEvent Time="14.837592875874126" Duration="0.0625" Velocity="51.7546692" OffVelocity="64" IsEnabled="true" NoteId="61" />
									<MidiNoteEvent Time="14.987891275391275" Duration="0.0625" Velocity="126.448112" OffVelocity="64" IsEnabled="true" NoteId="62" />
									<MidiNoteEvent Time="15.379667467948718" Duration="0.0625" Velocity="52.9538841" OffVelocity="64" IsEnabled="true" NoteId="63" />
									<MidiNoteEvent Time="15.479113854895106" Duration="0.0625" Velocity="53.8458748" OffVelocity="64" IsEnabled="true" NoteId="64" />
									<MidiNoteEvent Time="15.767240571928072" Duration="0.0625" Velocity="90.8382797" OffVelocity="64" IsEnabled="true" NoteId="65" />
								</Notes>
								<MidiKey Value="36" />
							</KeyTrack>
						</KeyTracks>
						<PerNoteEventStore>
							<EventLists />
						</PerNoteEventStore>
						<NoteIdGenerator>
							<NextId Value="66" />
						</NoteIdGenerator>
					</Notes>
					<BankSelectCoarse Value="-1" />
					<BankSelectFine Value="-1" />
					<ProgramChange Value="-1" />
					<NoteEditorFoldInZoom Value="-1" />
					<NoteEditorFoldInScroll Value="-1" />
					<NoteEditorFoldOutZoom Value="3072" />
					<NoteEditorFoldOutScroll Value="-2184" />
				</MidiClip>
			</Value>
		</Clip>
		<Grid Value="3" />
		<QuantizationAmount Value="0" />
		<TimingAmount Value="80" />
		<RandomAmount Value="0" />
		<VelocityAmount Value="0" />
		<Annotation Value="" />
		<Selection Value="true" />
		<SourceContext>
			<SourceContext Id="1">
				<OriginalFileRef>
					<FileRef Id="0">
						<HasRelativePath Value="true" />
						<RelativePathType Value="5" />
						<RelativePath>
							<RelativePathElement Id="0" Dir="Swing and Groove" />
							<RelativePathElement Id="1" Dir="Hip Hop" />
						</RelativePath>
						<Name Value="Hip Hop 3.agr" />
						<Type Value="2" />
						<Data>
							0000000001CC000200000653797374656D0000000000000000000000000000000000000000000000
							000042440001FFFFFFFF0D48697020486F7020332E61677200000000000000000000000000000000
							00000000000000000000000000000000000000000000000000000000000000000000FFFFFFFF0000
							00000000000000000000FFFFFFFF00000A206375000000000000000000000000000748697020486F
							7000000200732F3A4170706C69636174696F6E733A41626C65746F6E204C69766520313020537569
							74652E6170703A436F6E74656E74733A4170702D5265736F75726365733A436F7265204C69627261
							72793A5377696E6720616E642047726F6F76653A48697020486F703A48697020486F7020332E6167
							7200000E001C000D00480069007000200048006F007000200033002E006100670072000F000E0006
							00530079007300740065006D001200714170706C69636174696F6E732F41626C65746F6E204C6976
							652031302053756974652E6170702F436F6E74656E74732F4170702D5265736F75726365732F436F
							7265204C6962726172792F5377696E6720616E642047726F6F76652F48697020486F702F48697020
							486F7020332E61677200001300012F00FFFF0000
						</Data>
						<RefersToFolder Value="false" />
						<SearchHint>
							<PathHint />
							<FileSize Value="0" />
							<Crc Value="0" />
							<MaxCrcSize Value="0" />
							<HasExtendedInfo Value="false" />
						</SearchHint>
						<LivePackName Value="Core Library" />
						<LivePackId Value="www.ableton.com/0" />
					</FileRef>
				</OriginalFileRef>
				<BrowserContentPath Value="query:LivePacks#www.ableton.com/0:Swing%20and%20Groove:Hip%20Hop:Hip%20Hop%203.agr" />
			</SourceContext>
		</SourceContext>
	</Groove>
</Ableton>
