<?xml version="1.0" encoding="UTF-8"?>
<Ableton MajorVersion="5" MinorVersion="10.0_377" SchemaChangeCount="3" Creator="Ableton Live 10.1.6" Revision="04cf0aced295425d457145961b4fde60a4334f97">
	<Groove>
		<Name Value="Loosely Flow" />
		<Clip>
			<Value>
				<MidiClip Id="0" Time="0">
					<LomId Value="0" />
					<LomIdView Value="0" />
					<CurrentStart Value="0" />
					<CurrentEnd Value="16" />
					<Loop>
						<LoopStart Value="0" />
						<LoopEnd Value="16" />
						<StartRelative Value="0" />
						<LoopOn Value="true" />
						<OutMarker Value="16" />
						<HiddenLoopStart Value="0" />
						<HiddenLoopEnd Value="4" />
					</Loop>
					<Name Value="Loosely Flow" />
					<Annotation Value="" />
					<ColorIndex Value="10" />
					<LaunchMode Value="0" />
					<LaunchQuantisation Value="0" />
					<TimeSignature>
						<TimeSignatures>
							<RemoteableTimeSignature Id="0">
								<Numerator Value="4" />
								<Denominator Value="4" />
								<Time Value="0" />
							</RemoteableTimeSignature>
						</TimeSignatures>
					</TimeSignature>
					<Envelopes>
						<Envelopes />
					</Envelopes>
					<ScrollerTimePreserver>
						<LeftTime Value="0" />
						<RightTime Value="0" />
					</ScrollerTimePreserver>
					<TimeSelection>
						<AnchorTime Value="0" />
						<OtherTime Value="16.056540854978355" />
					</TimeSelection>
					<Legato Value="false" />
					<Ram Value="false" />
					<GrooveSettings>
						<GrooveId Value="-1" />
					</GrooveSettings>
					<Disabled Value="false" />
					<VelocityAmount Value="0" />
					<FollowTime Value="4" />
					<FollowActionA Value="0" />
					<FollowActionB Value="0" />
					<FollowChanceA Value="1" />
					<FollowChanceB Value="0" />
					<Grid>
						<FixedNumerator Value="1" />
						<FixedDenominator Value="16" />
						<GridIntervalPixel Value="20" />
						<Ntoles Value="2" />
						<SnapToGrid Value="false" />
						<Fixed Value="true" />
					</Grid>
					<FreezeStart Value="0" />
					<FreezeEnd Value="0" />
					<IsWarped Value="true" />
					<Notes>
						<KeyTracks>
							<KeyTrack Id="14">
								<Notes>
									<MidiNoteEvent Time="0" Duration="0.0625" Velocity="126.996124" OffVelocity="64" IsEnabled="true" NoteId="1" />
									<MidiNoteEvent Time="0.244679018897768885" Duration="0.0625" Velocity="64.3681641" OffVelocity="64" IsEnabled="true" NoteId="2" />
									<MidiNoteEvent Time="0.507982382201132232" Duration="0.0625" Velocity="39.4627075" OffVelocity="64" IsEnabled="true" NoteId="3" />
									<MidiNoteEvent Time="0.739315372127872128" Duration="0.0625" Velocity="44.7763367" OffVelocity="64" IsEnabled="true" NoteId="4" />
									<MidiNoteEvent Time="0.981368111055611059" Duration="0.0625" Velocity="102.447235" OffVelocity="64" IsEnabled="true" NoteId="5" />
									<MidiNoteEvent Time="1.2461785610223111" Duration="0.0625" Velocity="126.356628" OffVelocity="64" IsEnabled="true" NoteId="6" />
									<MidiNoteEvent Time="1.4641304008491509" Duration="0.0625" Velocity="58.7212219" OffVelocity="64" IsEnabled="true" NoteId="7" />
									<MidiNoteEvent Time="1.7308904637029636" Duration="0.0625" Velocity="100.536499" OffVelocity="64" IsEnabled="true" NoteId="8" />
									<MidiNoteEvent Time="2.0059198613886116" Duration="0.0625" Velocity="31.4050598" OffVelocity="64" IsEnabled="true" NoteId="9" />
									<MidiNoteEvent Time="2.2195242257742258" Duration="0.0625" Velocity="43.04776" OffVelocity="64" IsEnabled="true" NoteId="10" />
									<MidiNoteEvent Time="2.4872029012654013" Duration="0.0625" Velocity="126.996124" OffVelocity="64" IsEnabled="true" NoteId="11" />
									<MidiNoteEvent Time="2.6922915626040624" Duration="0.0625" Velocity="61.6357727" OffVelocity="64" IsEnabled="true" NoteId="12" />
									<MidiNoteEvent Time="2.9785706481018983" Duration="0.0625" Velocity="105.109863" OffVelocity="64" IsEnabled="true" NoteId="13" />
									<MidiNoteEvent Time="3.2537119130869132" Duration="0.0625" Velocity="29.4633179" OffVelocity="64" IsEnabled="true" NoteId="14" />
									<MidiNoteEvent Time="3.4696917665667666" Duration="0.0625" Velocity="38.4395142" OffVelocity="64" IsEnabled="true" NoteId="15" />
									<MidiNoteEvent Time="3.7564412150349651" Duration="0.0625" Velocity="58.546814" OffVelocity="64" IsEnabled="true" NoteId="16" />
									<MidiNoteEvent Time="3.9863597340159842" Duration="0.0625" Velocity="124.744324" OffVelocity="64" IsEnabled="true" NoteId="17" />
									<MidiNoteEvent Time="4.2477116633366636" Duration="0.0625" Velocity="61.7249146" OffVelocity="64" IsEnabled="true" NoteId="18" />
									<MidiNoteEvent Time="4.4903562583250087" Duration="0.0625" Velocity="36.8465881" OffVelocity="64" IsEnabled="true" NoteId="19" />
									<MidiNoteEvent Time="4.7208348942723939" Duration="0.0625" Velocity="41.9044189" OffVelocity="64" IsEnabled="true" NoteId="20" />
									<MidiNoteEvent Time="4.9758252164502164" Duration="0.0625" Velocity="117.826141" OffVelocity="64" IsEnabled="true" NoteId="21" />
									<MidiNoteEvent Time="5.23723385989011" Duration="0.0625" Velocity="80.8749695" OffVelocity="64" IsEnabled="true" NoteId="22" />
									<MidiNoteEvent Time="5.4875145687645688" Duration="0.0625" Velocity="126.403137" OffVelocity="64" IsEnabled="true" NoteId="23" />
									<MidiNoteEvent Time="5.7271684045121543" Duration="0.0625" Velocity="127" OffVelocity="64" IsEnabled="true" NoteId="24" />
									<MidiNoteEvent Time="5.9924578026140525" Duration="0.0625" Velocity="61.9613342" OffVelocity="64" IsEnabled="true" NoteId="25" />
									<MidiNoteEvent Time="6.224578286297036" Duration="0.0625" Velocity="52.3650208" OffVelocity="64" IsEnabled="true" NoteId="26" />
									<MidiNoteEvent Time="6.4830539252414257" Duration="0.0625" Velocity="123.399445" OffVelocity="64" IsEnabled="true" NoteId="27" />
									<MidiNoteEvent Time="6.7063816391941389" Duration="0.0625" Velocity="71.654541" OffVelocity="64" IsEnabled="true" NoteId="28" />
									<MidiNoteEvent Time="6.976033861971362" Duration="0.0625" Velocity="111.725739" OffVelocity="64" IsEnabled="true" NoteId="29" />
									<MidiNoteEvent Time="7.2783378080253076" Duration="0.0625" Velocity="89.5875549" OffVelocity="64" IsEnabled="true" NoteId="30" />
									<MidiNoteEvent Time="7.4697781385281381" Duration="0.0625" Velocity="62.9341431" OffVelocity="64" IsEnabled="true" NoteId="31" />
									<MidiNoteEvent Time="7.7457493027805526" Duration="0.0625" Velocity="79.0223083" OffVelocity="64" IsEnabled="true" NoteId="32" />
									<MidiNoteEvent Time="7.9905526764901769" Duration="0.0625" Velocity="126.996124" OffVelocity="64" IsEnabled="true" NoteId="33" />
									<MidiNoteEvent Time="8.2463073384948391" Duration="0.0625" Velocity="117.585846" OffVelocity="64" IsEnabled="true" NoteId="34" />
									<MidiNoteEvent Time="8.7196556048118552" Duration="0.0625" Velocity="92.4013367" OffVelocity="64" IsEnabled="true" NoteId="35" />
									<MidiNoteEvent Time="8.976849712787212" Duration="0.0625" Velocity="111.601715" OffVelocity="64" IsEnabled="true" NoteId="36" />
									<MidiNoteEvent Time="9.2300857996170489" Duration="0.0625" Velocity="126.565918" OffVelocity="64" IsEnabled="true" NoteId="37" />
									<MidiNoteEvent Time="9.4763283591408598" Duration="0.0625" Velocity="112.582275" OffVelocity="64" IsEnabled="true" NoteId="38" />
									<MidiNoteEvent Time="9.7238527097902097" Duration="0.0625" Velocity="115.318542" OffVelocity="64" IsEnabled="true" NoteId="39" />
									<MidiNoteEvent Time="9.9768190143190143" Duration="0.0625" Velocity="67.8253174" OffVelocity="64" IsEnabled="true" NoteId="40" />
									<MidiNoteEvent Time="10.213009646603396" Duration="0.0625" Velocity="68.4764404" OffVelocity="64" IsEnabled="true" NoteId="41" />
									<MidiNoteEvent Time="10.485832396769897" Duration="0.0625" Velocity="123.488586" OffVelocity="64" IsEnabled="true" NoteId="42" />
									<MidiNoteEvent Time="10.7217084998335" Duration="0.0625" Velocity="77.4603882" OffVelocity="64" IsEnabled="true" NoteId="43" />
									<MidiNoteEvent Time="10.972763174325674" Duration="0.0625" Velocity="107.915894" OffVelocity="64" IsEnabled="true" NoteId="44" />
									<MidiNoteEvent Time="11.248621690809191" Duration="0.0625" Velocity="56.8531189" OffVelocity="64" IsEnabled="true" NoteId="45" />
									<MidiNoteEvent Time="11.473838401182151" Duration="0.0625" Velocity="70.4724426" OffVelocity="64" IsEnabled="true" NoteId="46" />
									<MidiNoteEvent Time="11.738723255910756" Duration="0.0625" Velocity="83.9289856" OffVelocity="64" IsEnabled="true" NoteId="47" />
									<MidiNoteEvent Time="11.989620795870795" Duration="0.0625" Velocity="117.388184" OffVelocity="64" IsEnabled="true" NoteId="48" />
									<MidiNoteEvent Time="12.249198457792208" Duration="0.0625" Velocity="77.9487305" OffVelocity="64" IsEnabled="true" NoteId="49" />
									<MidiNoteEvent Time="12.489144449300699" Duration="0.0625" Velocity="119.90741" OffVelocity="64" IsEnabled="true" NoteId="50" />
									<MidiNoteEvent Time="12.692098526473526" Duration="0.0625" Velocity="73.5303955" OffVelocity="64" IsEnabled="true" NoteId="51" />
									<MidiNoteEvent Time="12.975535402097902" Duration="0.0625" Velocity="122.643677" OffVelocity="64" IsEnabled="true" NoteId="52" />
									<MidiNoteEvent Time="13.47514906968032" Duration="0.0625" Velocity="67.7245483" OffVelocity="64" IsEnabled="true" NoteId="53" />
									<MidiNoteEvent Time="13.730139391858142" Duration="0.0625" Velocity="126.996124" OffVelocity="64" IsEnabled="true" NoteId="54" />
									<MidiNoteEvent Time="13.977506087662338" Duration="0.0625" Velocity="61.8334351" OffVelocity="64" IsEnabled="true" NoteId="55" />
									<MidiNoteEvent Time="14.24020953005328" Duration="0.0625" Velocity="69.7903137" OffVelocity="64" IsEnabled="true" NoteId="56" />
									<MidiNoteEvent Time="14.484563353313353" Duration="0.0625" Velocity="122.787079" OffVelocity="64" IsEnabled="true" NoteId="57" />
									<MidiNoteEvent Time="14.727567484598735" Duration="0.0625" Velocity="78.665741" OffVelocity="64" IsEnabled="true" NoteId="58" />
									<MidiNoteEvent Time="14.976935824592074" Duration="0.0625" Velocity="107.543823" OffVelocity="64" IsEnabled="true" NoteId="59" />
									<MidiNoteEvent Time="15.475897539960039" Duration="0.0625" Velocity="64.7363586" OffVelocity="64" IsEnabled="true" NoteId="60" />
									<MidiNoteEvent Time="15.742311334498835" Duration="0.0625" Velocity="84.1266479" OffVelocity="64" IsEnabled="true" NoteId="61" />
									<MidiNoteEvent Time="15.994040854978355" Duration="0.0625" Velocity="124.209473" OffVelocity="64" IsEnabled="true" NoteId="62" />
								</Notes>
								<MidiKey Value="36" />
							</KeyTrack>
						</KeyTracks>
						<PerNoteEventStore>
							<EventLists />
						</PerNoteEventStore>
						<NoteIdGenerator>
							<NextId Value="63" />
						</NoteIdGenerator>
					</Notes>
					<BankSelectCoarse Value="-1" />
					<BankSelectFine Value="-1" />
					<ProgramChange Value="-1" />
					<NoteEditorFoldInZoom Value="308" />
					<NoteEditorFoldInScroll Value="0" />
					<NoteEditorFoldOutZoom Value="-1" />
					<NoteEditorFoldOutScroll Value="-1" />
				</MidiClip>
			</Value>
		</Clip>
		<Grid Value="3" />
		<QuantizationAmount Value="0" />
		<TimingAmount Value="26" />
		<RandomAmount Value="0" />
		<VelocityAmount Value="10" />
		<Annotation Value="" />
		<Selection Value="true" />
		<SourceContext>
			<SourceContext Id="2">
				<OriginalFileRef>
					<FileRef Id="0">
						<HasRelativePath Value="true" />
						<RelativePathType Value="5" />
						<RelativePath>
							<RelativePathElement Id="0" Dir="Swing and Groove" />
							<RelativePathElement Id="1" Dir="Hip Hop" />
						</RelativePath>
						<Name Value="Loosely Flow.agr" />
						<Type Value="2" />
						<Data>
							0000000001D6000200000653797374656D0000000000000000000000000000000000000000000000
							000042440001FFFFFFFF104C6F6F73656C7920466C6F772E61677200000000000000000000000000
							00000000000000000000000000000000000000000000000000000000000000000000FFFFFFFF0000
							00000000000000000000FFFFFFFF00000A206375000000000000000000000000000748697020486F
							7000000200762F3A4170706C69636174696F6E733A41626C65746F6E204C69766520313020537569
							74652E6170703A436F6E74656E74733A4170702D5265736F75726365733A436F7265204C69627261
							72793A5377696E6720616E642047726F6F76653A48697020486F703A4C6F6F73656C7920466C6F77
							2E616772000E00220010004C006F006F00730065006C007900200046006C006F0077002E00610067
							0072000F000E000600530079007300740065006D001200744170706C69636174696F6E732F41626C
							65746F6E204C6976652031302053756974652E6170702F436F6E74656E74732F4170702D5265736F
							75726365732F436F7265204C6962726172792F5377696E6720616E642047726F6F76652F48697020
							486F702F4C6F6F73656C7920466C6F772E616772001300012F00FFFF0000
						</Data>
						<RefersToFolder Value="false" />
						<SearchHint>
							<PathHint />
							<FileSize Value="0" />
							<Crc Value="0" />
							<MaxCrcSize Value="0" />
							<HasExtendedInfo Value="false" />
						</SearchHint>
						<LivePackName Value="Core Library" />
						<LivePackId Value="www.ableton.com/0" />
					</FileRef>
				</OriginalFileRef>
				<BrowserContentPath Value="query:LivePacks#www.ableton.com/0:Swing%20and%20Groove:Hip%20Hop:Loosely%20Flow.agr" />
			</SourceContext>
		</SourceContext>
	</Groove>
</Ableton>
